<svg id="Layer_1" data-name="Layer 1"
    xmlns="http://www.w3.org/2000/svg" viewBox="0 0 57.4 49.5">
    <defs>
        <style>.cls-1{fill:#f6f6f6;}.cls-2{fill:#415e76;}.cls-3{fill:#5bcbc3;}.cls-4{fill:#8887cf;}</style>
    </defs>
    <title>3</title>
    <path class="cls-1" d="M27.4,26.1l15.1-.2v.2a15.1,15.1,0,1,1-26.5-9.9Z"/>
    <path class="cls-2" d="M27.4,41.7A15.6,15.6,0,0,1,15.7,15.9l.3-.4L27.6,25.6,43,25.4v.7A15.6,15.6,0,0,1,27.4,41.7ZM16.1,16.9A14.6,14.6,0,1,0,42,26.4l-14.8.2Z"/>
    <path class="cls-3" d="M28,23.1,16.9,13.4A14.7,14.7,0,0,1,28,8.4h.3Z"/>
    <path class="cls-2" d="M28.4,24.2,16.2,13.4l.3-.4A15.2,15.2,0,0,1,28,7.9h.8ZM17.6,13.3,27.5,22l.3-13.1A14.2,14.2,0,0,0,17.6,13.3Z"/>
    <path class="cls-4" d="M30.3,23.1V8.4A14.7,14.7,0,0,1,45,22.9Z"/>
    <path class="cls-2" d="M29.8,23.6,30,7.9h.5A15.2,15.2,0,0,1,45.5,22.9v.5ZM31,8.9V22.6H44.5A14.2,14.2,0,0,0,31,8.9Z"/>
    <path class="cls-2" d="M18.2,34A12.3,12.3,0,0,1,15,26.7h1a11.3,11.3,0,0,0,2.9,6.7Z"/>
    <path class="cls-2" d="M21.2,36.5l-2-1.4.7-.8,1.8,1.3Z"/>
</svg>